mtllib bridgesection3.mtl
o object1
g object1
v -0.03340498 13.28091055 -0.00000000
v 3.40448803 13.29668898 -0.00000000
v 6.89747711 7.31027389 -0.00000000
v 3.45958410 1.29204907 -0.00000000
v -0.03340498 1.27601777 -0.00000000
v -0.03340498 -0.00015331 -0.00000000
v 4.20222324 0.01928637 -0.00000000
v 8.37104151 7.31703691 -0.00000000
v 4.13541329 14.57621469 -0.00000000
v -0.03340498 14.55708163 -0.00000000
v -3.47129799 1.26023934 -0.00000000
v -6.96428707 7.24665443 -0.00000000
v -3.52639405 13.26487925 -0.00000000
v -4.26903320 14.53764195 -0.00000000
v -8.43785146 7.23989141 -0.00000000
v -4.20222324 -0.01928637 -0.00000000
v -0.03340498 13.28091055 -5.50203335
v 3.40448803 13.29668898 -5.50203335
v 6.89747711 7.31027389 -5.50203335
v 3.45958410 1.29204907 -5.50203335
v -0.03340498 1.27601777 -5.50203335
v -0.03340498 -0.00015331 -5.50203335
v 4.20222324 0.01928637 -5.50203335
v 8.37104151 7.31703691 -5.50203335
v 4.13541329 14.57621469 -5.50203335
v -0.03340498 14.55708163 -5.50203335
v -3.47129799 1.26023934 -5.50203335
v -6.96428707 7.24665443 -5.50203335
v -3.52639405 13.26487925 -5.50203335
v -4.26903320 14.53764195 -5.50203335
v -8.43785146 7.23989141 -5.50203335
v -4.20222324 -0.01928637 -5.50203335
v -5.24970391 1.77592510 -1.80000000
v -5.24970391 1.77592510 -3.70203335
v -8.43785146 7.23989141 -3.70203335
v -8.43785146 7.23989141 -1.80000000
v 4.13541329 14.57621469 -3.70203335
v 8.37104151 7.31703691 -3.70203335
v 4.13541329 14.57621469 -1.80000000
v -4.26903320 14.53764195 -1.80000000
v -4.26903320 14.53764195 -3.70203335
v 5.23318165 1.82403698 -3.70203335
v 5.23318165 1.82403698 -1.80000000
v 8.37104151 7.31703691 -1.80000000
v -8.18382002 7.24105731 -1.80000000
v -4.14100778 14.31822721 -1.80000000
v 4.00940726 14.35563406 -1.80000000
v 8.11701006 7.31587101 -1.80000000
v 4.97915021 1.82287109 -1.80000000
v -4.99567247 1.77709100 -1.80000000
v -8.18382002 7.24105731 -3.70203335
v -4.99567247 1.77709100 -3.70203335
v 8.11701006 7.31587101 -3.70203335
v 4.97915021 1.82287109 -3.70203335
v -4.14100778 14.31822721 -3.70203335
v 4.00940726 14.35563406 -3.70203335
v -6.96428707 7.24665443 -1.80000000
v -4.51877866 3.05545082 -1.80000000
v -4.51877866 3.05545082 -3.70203335
v -6.96428707 7.24665443 -3.70203335
v -4.55735247 11.46012865 -1.80000000
v -4.55735247 11.46012865 -3.70203335
v -4.77281010 3.05428492 -3.70203335
v -4.77281010 3.05428492 -1.80000000
v -4.81138391 11.45896275 -1.80000000
v -7.21831851 7.24548854 -1.80000000
v -7.21831851 7.24548854 -3.70203335
v -4.81138391 11.45896275 -3.70203335
v 6.89747711 7.31027389 -1.80000000
v 4.45196870 11.50147750 -1.80000000
v 4.45196870 11.50147750 -3.70203335
v 6.89747711 7.31027389 -3.70203335
v 4.49054251 3.09679967 -1.80000000
v 4.49054251 3.09679967 -3.70203335
v 4.70600014 11.50264340 -3.70203335
v 4.70600014 11.50264340 -1.80000000
v 4.74457395 3.09796557 -1.80000000
v 7.15150855 7.31143978 -1.80000000
v 4.74457395 3.09796557 -3.70203335
v 7.15150855 7.31143978 -3.70203335
vt 0.91125319 0.50000000
vt 0.91233424 0.29547178
vt 0.50217942 0.08766576
vt 0.08984518 0.29219398
vt 0.08874681 0.50000000
vt 0.00131089 0.50000000
vt 0.00264278 0.24801266
vt 0.50264278 0.00000000
vt 1.00000000 0.25198734
vt 0.99868911 0.50000000
vt 0.08766576 0.70452822
vt 0.49782058 0.91233424
vt 0.91015482 0.70780602
vt 0.99735722 0.75198734
vt 0.49735722 1.00000000
vt 0.00000000 0.74801266
vt 0.91125319 0.50000000
vt 0.91233424 0.29547178
vt 0.50217942 0.08766576
vt 0.08984518 0.29219398
vt 0.08874681 0.50000000
vt 0.00131089 0.50000000
vt 0.00264278 0.24801266
vt 0.50264278 0.00000000
vt 1.00000000 0.25198734
vt 0.99868911 0.50000000
vt 0.08766576 0.70452822
vt 0.49782058 0.91233424
vt 0.91015482 0.70780602
vt 0.99735722 0.75198734
vt 0.49735722 1.00000000
vt 0.00000000 0.74801266
vt 0.32715178 0.75269768
vt 0.67284822 0.75269768
vt 0.67284822 0.00000000
vt 1.00000000 0.00000000
vt 1.00000000 1.00000000
vt 0.00000000 1.00000000
vt 0.00000000 0.00000000
vt 0.32715178 0.00000000
vt 0.00000000 1.00000000
vt 0.00000000 0.00000000
vt 1.00000000 0.00000000
vt 1.00000000 1.00000000
vt 0.00000000 0.49602532
vt 1.00000000 0.49602532
vt 0.00000000 1.00000000
vt 0.00000000 0.00000000
vt 1.00000000 0.00000000
vt 1.00000000 1.00000000
vt 1.00000000 0.00000000
vt 1.00000000 1.00000000
vt 0.00000000 1.00000000
vt 0.00000000 0.00000000
vt 0.00000000 0.49602532
vt 0.00000000 1.00000000
vt 0.00000000 0.00000000
vt 1.00000000 0.00000000
vt 1.00000000 1.00000000
vt 0.00000000 1.00000000
vt 0.00000000 0.00000000
vt 1.00000000 0.00000000
vt 1.00000000 1.00000000
vt 1.00000000 0.49602532
vt 0.00000000 0.49602532
vt 0.00000000 1.00000000
vt 0.00000000 0.00000000
vt 1.00000000 0.00000000
vt 1.00000000 1.00000000
vt 1.00000000 0.49602532
vt 0.00000000 0.49602532
vt 0.00000000 1.00000000
vt 0.00000000 0.00000000
vt 1.00000000 0.00000000
vt 1.00000000 1.00000000
vt 1.00000000 0.49602532
vt 0.67284822 0.24730232
vt 0.32715178 0.24730232
vt 0.32715178 1.00000000
vt 0.00000000 1.00000000
vt 0.00000000 0.00000000
vt 1.00000000 0.00000000
vt 1.00000000 1.00000000
vt 0.67284822 1.00000000
vt 1.00000000 0.00000000
vt 1.00000000 1.00000000
vt 0.00000000 1.00000000
vt 0.00000000 0.00000000
vt 1.00000000 0.00000000
vt 1.00000000 1.00000000
vt 0.00000000 1.00000000
vt 0.00000000 0.00000000
vt 0.42695379 0.98488708
vt 0.97984518 0.74437081
vt 0.98276753 0.25948373
vt 0.43279848 0.01511292
vt 0.00366757 0.20179147
vt 0.00375866 0.18667856
vt 0.43288957 0.00000000
vt 1.00000000 0.25198734
vt 0.99698657 0.75198734
vt 0.42686271 1.00000000
vt 0.00000000 0.81032971
vt 0.00009108 0.79521679
vt 0.00000000 1.00000000
vt 0.00000000 0.00000000
vt 1.00000000 0.00000000
vt 1.00000000 1.00000000
vt 0.43279848 0.01511292
vt 0.00366757 0.20179147
vt 0.00375866 0.18667856
vt 0.43288957 0.00000000
vt 1.00000000 0.25198734
vt 0.99698657 0.75198734
vt 0.42686271 1.00000000
vt 0.00000000 0.81032971
vt 0.00009108 0.79521679
vt 0.42695379 0.98488708
vt 0.97984518 0.74437081
vt 0.98276753 0.25948373
vt 1.00000000 1.00000000
vt 0.00000000 1.00000000
vt 0.00000000 0.00000000
vt 1.00000000 0.00000000
vt 0.00000000 0.00000000
vt 1.00000000 0.00000000
vt 1.00000000 1.00000000
vt 0.00000000 1.00000000
vt 0.00000000 1.00000000
vt 0.00000000 0.00000000
vt 1.00000000 0.00000000
vt 1.00000000 1.00000000
vt 0.00000000 1.00000000
vt 0.00000000 0.00000000
vt 1.00000000 0.00000000
vt 1.00000000 1.00000000
vt 0.00000000 1.00000000
vt 0.00000000 0.00000000
vt 1.00000000 0.00000000
vt 1.00000000 1.00000000
vt 0.00000000 1.00000000
vt 0.00000000 0.00000000
vt 1.00000000 0.00000000
vt 1.00000000 1.00000000
vt 0.32715178 0.00000000
vt 0.32715178 0.70011911
vt 0.67284822 0.70011911
vt 0.67284822 0.00000000
vt 1.00000000 0.00000000
vt 1.00000000 1.00000000
vt 0.00000000 1.00000000
vt 0.00000000 0.00000000
vt 0.32715178 0.29988089
vt 0.32715178 1.00000000
vt 0.00000000 1.00000000
vt 0.00000000 0.00000000
vt 1.00000000 0.00000000
vt 1.00000000 1.00000000
vt 0.67284822 1.00000000
vt 0.67284822 0.29988089
vt 1.00000000 0.00000000
vt 1.00000000 1.00000000
vt 0.00000000 1.00000000
vt 0.00000000 0.00000000
vt 1.00000000 0.01428903
vt 0.99986130 0.10839079
vt 0.49860594 1.00000000
vt 0.00000000 0.09410176
vt 0.00013870 0.00000000
vt 0.49874464 0.90589824
vt 0.00000000 0.00000000
vt 1.00000000 0.00000000
vt 1.00000000 1.00000000
vt 0.00000000 1.00000000
vt 0.00000000 1.00000000
vt 0.00000000 0.00000000
vt 1.00000000 0.00000000
vt 1.00000000 1.00000000
vt 0.00000000 0.00000000
vt 1.00000000 0.00000000
vt 1.00000000 1.00000000
vt 0.00000000 1.00000000
vt 1.00000000 0.01428903
vt 0.99986130 0.10839079
vt 0.49860594 1.00000000
vt 0.00000000 0.09410176
vt 0.00013870 0.00000000
vt 0.49874464 0.90589824
vt 0.32715178 0.00000000
vt 0.32715178 0.70011911
vt 0.67284822 0.70011911
vt 0.67284822 0.00000000
vt 1.00000000 0.00000000
vt 1.00000000 1.00000000
vt 0.00000000 1.00000000
vt 0.00000000 0.00000000
vt 0.32715178 0.29988089
vt 0.32715178 1.00000000
vt 0.00000000 1.00000000
vt 0.00000000 0.00000000
vt 1.00000000 0.00000000
vt 1.00000000 1.00000000
vt 0.67284822 1.00000000
vt 0.67284822 0.29988089
vt 1.00000000 0.00000000
vt 1.00000000 1.00000000
vt 0.00000000 1.00000000
vt 0.00000000 0.00000000
vt 0.00013870 0.89160921
vt 0.50139406 0.00000000
vt 1.00000000 0.90589824
vt 0.99986130 1.00000000
vt 0.50125536 0.09410176
vt 0.00000000 0.98571097
vt 0.00000000 1.00000000
vt 0.00000000 0.00000000
vt 1.00000000 0.00000000
vt 1.00000000 1.00000000
vt 0.00000000 0.00000000
vt 1.00000000 0.00000000
vt 1.00000000 1.00000000
vt 0.00000000 1.00000000
vt 0.00000000 0.00000000
vt 1.00000000 0.00000000
vt 1.00000000 1.00000000
vt 0.00000000 1.00000000
vt 0.50139406 0.00000000
vt 1.00000000 0.90589824
vt 0.99986130 1.00000000
vt 0.50125536 0.09410176
vt 0.00000000 0.98571097
vt 0.00013870 0.89160921
vn 0.00000000 0.00000000 1.00000000
vn 0.00000000 0.00000000 1.00000000
vn 0.00000000 0.00000000 1.00000000
vn 0.00000000 0.00000000 1.00000000
vn 0.00000000 0.00000000 1.00000000
vn 0.00000000 0.00000000 1.00000000
vn 0.00000000 0.00000000 1.00000000
vn 0.00000000 0.00000000 1.00000000
vn 0.00000000 0.00000000 1.00000000
vn 0.00000000 0.00000000 1.00000000
vn 0.00000000 0.00000000 1.00000000
vn 0.00000000 0.00000000 1.00000000
vn 0.00000000 0.00000000 1.00000000
vn 0.00000000 0.00000000 1.00000000
vn 0.00000000 0.00000000 1.00000000
vn 0.00000000 0.00000000 1.00000000
vn -0.00000000 -0.00000000 -1.00000000
vn -0.00000000 -0.00000000 -1.00000000
vn -0.00000000 -0.00000000 -1.00000000
vn -0.00000000 -0.00000000 -1.00000000
vn -0.00000000 -0.00000000 -1.00000000
vn -0.00000000 -0.00000000 -1.00000000
vn -0.00000000 -0.00000000 -1.00000000
vn -0.00000000 -0.00000000 -1.00000000
vn -0.00000000 -0.00000000 -1.00000000
vn -0.00000000 -0.00000000 -1.00000000
vn -0.00000000 -0.00000000 -1.00000000
vn -0.00000000 -0.00000000 -1.00000000
vn -0.00000000 -0.00000000 -1.00000000
vn -0.00000000 -0.00000000 -1.00000000
vn -0.00000000 -0.00000000 -1.00000000
vn -0.00000000 -0.00000000 -1.00000000
vn -0.86372152 -0.50396937 -0.00000000
vn -0.86372152 -0.50396937 -0.00000000
vn -0.86372152 -0.50396937 -0.00000000
vn -0.86372152 -0.50396937 -0.00000000
vn -0.86372152 -0.50396937 -0.00000000
vn -0.86372152 -0.50396937 -0.00000000
vn -0.86372152 -0.50396937 -0.00000000
vn -0.86372152 -0.50396937 -0.00000000
vn 0.00458952 -0.99998947 -0.00000000
vn 0.00458952 -0.99998947 -0.00000000
vn 0.00458952 -0.99998947 -0.00000000
vn 0.00458952 -0.99998947 -0.00000000
vn 0.00458952 -0.99998947 -0.00000000
vn 0.00458952 -0.99998947 -0.00000000
vn 0.86372152 0.50396937 0.00000000
vn 0.86372152 0.50396937 0.00000000
vn 0.86372152 0.50396937 0.00000000
vn 0.86372152 0.50396937 0.00000000
vn -0.00458952 0.99998947 -0.00000000
vn -0.00458952 0.99998947 -0.00000000
vn -0.00458952 0.99998947 -0.00000000
vn -0.00458952 0.99998947 -0.00000000
vn -0.00458952 0.99998947 -0.00000000
vn -0.86831104 0.49602010 -0.00000000
vn -0.86831104 0.49602010 -0.00000000
vn -0.86831104 0.49602010 -0.00000000
vn -0.86831104 0.49602010 -0.00000000
vn -0.00458952 0.99998947 0.00000000
vn -0.00458952 0.99998947 0.00000000
vn -0.00458952 0.99998947 0.00000000
vn -0.00458952 0.99998947 0.00000000
vn -0.00458952 0.99998947 0.00000000
vn -0.00458952 0.99998947 0.00000000
vn 0.00458952 -0.99998947 0.00000000
vn 0.00458952 -0.99998947 0.00000000
vn 0.00458952 -0.99998947 0.00000000
vn 0.00458952 -0.99998947 0.00000000
vn 0.00458952 -0.99998947 0.00000000
vn 0.00458952 -0.99998947 0.00000000
vn -0.00458952 0.99998947 -0.00000000
vn -0.00458952 0.99998947 0.00000000
vn -0.00458952 0.99998947 0.00000000
vn -0.00458952 0.99998947 -0.00000000
vn -0.00458952 0.99998947 -0.00000000
vn 0.86831104 -0.49602010 -0.00000000
vn 0.86831104 -0.49602010 -0.00000000
vn 0.86831104 -0.49602010 -0.00000000
vn 0.86831104 -0.49602010 -0.00000000
vn 0.86831104 -0.49602010 -0.00000000
vn 0.86831104 -0.49602010 -0.00000000
vn 0.86831104 -0.49602010 -0.00000000
vn 0.86831104 -0.49602010 -0.00000000
vn 0.86372152 0.50396937 0.00000000
vn 0.86372152 0.50396937 0.00000000
vn 0.86372152 0.50396937 0.00000000
vn 0.86372152 0.50396937 0.00000000
vn -0.86831104 0.49602010 -0.00000000
vn -0.86831104 0.49602010 -0.00000000
vn -0.86831104 0.49602010 -0.00000000
vn -0.86831104 0.49602010 -0.00000000
vn -0.00000000 -0.00000000 -1.00000000
vn -0.00000000 -0.00000000 -1.00000000
vn -0.00000000 -0.00000000 -1.00000000
vn -0.00000000 -0.00000000 -1.00000000
vn -0.00000000 -0.00000000 -1.00000000
vn -0.00000000 -0.00000000 -1.00000000
vn -0.00000000 -0.00000000 -1.00000000
vn -0.00000000 -0.00000000 -1.00000000
vn -0.00000000 -0.00000000 -1.00000000
vn -0.00000000 -0.00000000 -1.00000000
vn -0.00000000 -0.00000000 -1.00000000
vn -0.00000000 -0.00000000 -1.00000000
vn -0.86372152 -0.50396937 -0.00000000
vn -0.86372152 -0.50396937 -0.00000000
vn -0.86372152 -0.50396937 -0.00000000
vn -0.86372152 -0.50396937 -0.00000000
vn 0.00000000 0.00000000 1.00000000
vn 0.00000000 0.00000000 1.00000000
vn 0.00000000 0.00000000 1.00000000
vn 0.00000000 0.00000000 1.00000000
vn 0.00000000 0.00000000 1.00000000
vn 0.00000000 0.00000000 1.00000000
vn 0.00000000 0.00000000 1.00000000
vn 0.00000000 0.00000000 1.00000000
vn 0.00000000 0.00000000 1.00000000
vn 0.00000000 0.00000000 1.00000000
vn 0.00000000 0.00000000 1.00000000
vn 0.00000000 0.00000000 1.00000000
vn -0.00458952 0.99998947 0.00000000
vn -0.00458952 0.99998947 0.00000000
vn -0.00458952 0.99998947 0.00000000
vn -0.00458952 0.99998947 0.00000000
vn -0.00458952 0.99998947 0.00000000
vn -0.00458952 0.99998947 0.00000000
vn -0.00458952 0.99998947 0.00000000
vn -0.00458952 0.99998947 0.00000000
vn 0.86831104 -0.49602010 -0.00000000
vn 0.86831104 -0.49602010 -0.00000000
vn 0.86831104 -0.49602010 -0.00000000
vn 0.86831104 -0.49602010 -0.00000000
vn 0.86372152 0.50396937 0.00000000
vn 0.86372152 0.50396937 0.00000000
vn 0.86372152 0.50396937 0.00000000
vn 0.86372152 0.50396937 0.00000000
vn -0.00458952 0.99998947 -0.00000000
vn -0.00458952 0.99998947 -0.00000000
vn -0.00458952 0.99998947 -0.00000000
vn -0.00458952 0.99998947 -0.00000000
vn -0.86831104 0.49602010 -0.00000000
vn -0.86831104 0.49602010 -0.00000000
vn -0.86831104 0.49602010 -0.00000000
vn -0.86831104 0.49602010 -0.00000000
vn 0.86372152 0.50396937 0.00000000
vn 0.86372152 0.50396937 0.00000000
vn 0.86372152 0.50396937 0.00000000
vn 0.86372152 0.50396937 0.00000000
vn 0.86372152 0.50396937 0.00000000
vn 0.86372152 0.50396937 0.00000000
vn 0.86372152 0.50396937 0.00000000
vn 0.86372152 0.50396937 0.00000000
vn 0.86831104 -0.49602010 0.00000000
vn 0.86831104 -0.49602010 0.00000000
vn 0.86831104 -0.49602010 0.00000000
vn 0.86831104 -0.49602010 0.00000000
vn 0.86831104 -0.49602010 0.00000000
vn 0.86831104 -0.49602010 0.00000000
vn 0.86831104 -0.49602010 0.00000000
vn 0.86831104 -0.49602010 0.00000000
vn -0.00458952 0.99998947 -0.00000000
vn -0.00458952 0.99998947 -0.00000000
vn -0.00458952 0.99998947 -0.00000000
vn -0.00458952 0.99998947 -0.00000000
vn 0.00000000 -0.00000000 -1.00000000
vn 0.00000000 -0.00000000 -1.00000000
vn 0.00000000 -0.00000000 -1.00000000
vn 0.00000000 -0.00000000 -1.00000000
vn 0.00000000 -0.00000000 -1.00000000
vn 0.00000000 -0.00000000 -1.00000000
vn 0.86831104 -0.49602010 -0.00000000
vn 0.86831104 -0.49602010 -0.00000000
vn 0.86831104 -0.49602010 -0.00000000
vn 0.86831104 -0.49602010 -0.00000000
vn 0.00458952 -0.99998947 -0.00000000
vn 0.00458952 -0.99998947 -0.00000000
vn 0.00458952 -0.99998947 0.00000000
vn 0.00458952 -0.99998947 0.00000000
vn 0.86372152 0.50396937 0.00000000
vn 0.86372152 0.50396937 0.00000000
vn 0.86372152 0.50396937 0.00000000
vn 0.86372152 0.50396937 0.00000000
vn 0.00000000 0.00000000 1.00000000
vn 0.00000000 0.00000000 1.00000000
vn 0.00000000 0.00000000 1.00000000
vn 0.00000000 0.00000000 1.00000000
vn 0.00000000 0.00000000 1.00000000
vn 0.00000000 0.00000000 1.00000000
vn -0.86372152 -0.50396937 -0.00000000
vn -0.86372152 -0.50396937 -0.00000000
vn -0.86372152 -0.50396937 -0.00000000
vn -0.86372152 -0.50396937 -0.00000000
vn -0.86372152 -0.50396937 -0.00000000
vn -0.86372152 -0.50396937 -0.00000000
vn -0.86372152 -0.50396937 -0.00000000
vn -0.86372152 -0.50396937 -0.00000000
vn -0.86831104 0.49602010 0.00000000
vn -0.86831104 0.49602010 0.00000000
vn -0.86831104 0.49602010 0.00000000
vn -0.86831104 0.49602010 0.00000000
vn -0.86831104 0.49602010 0.00000000
vn -0.86831104 0.49602010 0.00000000
vn -0.86831104 0.49602010 0.00000000
vn -0.86831104 0.49602010 0.00000000
vn 0.00458952 -0.99998947 -0.00000000
vn 0.00458952 -0.99998947 -0.00000000
vn 0.00458952 -0.99998947 -0.00000000
vn 0.00458952 -0.99998947 -0.00000000
vn -0.00000000 -0.00000000 -1.00000000
vn -0.00000000 -0.00000000 -1.00000000
vn -0.00000000 -0.00000000 -1.00000000
vn -0.00000000 -0.00000000 -1.00000000
vn -0.00000000 -0.00000000 -1.00000000
vn -0.00000000 -0.00000000 -1.00000000
vn -0.00458952 0.99998947 -0.00000000
vn -0.00458952 0.99998947 -0.00000000
vn -0.00458952 0.99998947 -0.00000000
vn -0.00458952 0.99998947 -0.00000000
vn -0.86831104 0.49602010 -0.00000000
vn -0.86831104 0.49602010 -0.00000000
vn -0.86831104 0.49602010 -0.00000000
vn -0.86831104 0.49602010 -0.00000000
vn -0.86372152 -0.50396937 -0.00000000
vn -0.86372152 -0.50396937 -0.00000000
vn -0.86372152 -0.50396937 -0.00000000
vn -0.86372152 -0.50396937 -0.00000000
vn 0.00000000 0.00000000 1.00000000
vn 0.00000000 0.00000000 1.00000000
vn 0.00000000 0.00000000 1.00000000
vn 0.00000000 0.00000000 1.00000000
vn 0.00000000 0.00000000 1.00000000
vn 0.00000000 0.00000000 1.00000000
s 1
usemtl Default
f 10/10/10 1/1/1 2/2/2
f 9/9/9 2/2/2 3/3/3
f 3/3/3 7/7/7 8/8/8
f 4/4/4 6/6/6 7/7/7
f 16/16/16 6/6/6 11/11/11
f 12/12/12 15/15/15 16/16/16
f 12/12/12 14/14/14 15/15/15
f 12/12/12 13/13/13 14/14/14
f 16/16/16 11/11/11 12/12/12
f 6/6/6 5/5/5 11/11/11
f 4/4/4 5/5/5 6/6/6
f 3/3/3 4/4/4 7/7/7
f 3/3/3 8/8/8 9/9/9
f 13/13/13 10/10/10 14/14/14
f 13/13/13 1/1/1 10/10/10
f 9/9/9 10/10/10 2/2/2
s 2
f 18/18/18 17/17/17 26/26/26
f 30/30/30 26/26/26 29/29/29
f 31/31/31 30/30/30 28/28/28
f 28/28/28 27/27/27 32/32/32
f 27/27/27 22/22/22 32/32/32
f 23/23/23 22/22/22 20/20/20
f 24/24/24 23/23/23 19/19/19
f 25/25/25 24/24/24 19/19/19
f 23/23/23 20/20/20 19/19/19
f 22/22/22 21/21/21 20/20/20
f 27/27/27 21/21/21 22/22/22
f 32/32/32 31/31/31 28/28/28
f 30/30/30 29/29/29 28/28/28
f 26/26/26 17/17/17 29/29/29
f 19/19/19 18/18/18 25/25/25
f 18/18/18 26/26/26 25/25/25
s 3
f 15/39/39 36/40/40 33/33/33
f 33/33/33 32/37/37 16/38/38
f 34/34/34 31/36/36 32/37/37
f 34/34/34 35/35/35 31/36/36
f 33/33/33 34/34/34 32/37/37
f 33/33/33 16/38/38 15/39/39
s 4
f 16/42/42 32/43/43 22/46/46 6/45/45
f 6/45/45 22/46/46 23/44/44 7/41/41
s 5
f 37/47/47 38/48/48 24/49/49 25/50/50
s 6
f 10/55/55 9/54/54 39/51/51
f 39/51/51 40/52/52 10/55/55
f 40/52/52 14/53/53 10/55/55
s 7
f 35/56/56 41/57/57 30/58/58 31/59/59
s 8
f 27/62/62 11/61/61 5/65/65 21/64/64
f 21/64/64 5/65/65 4/60/60 20/63/63
s 9
f 18/68/68 2/67/67 1/71/71 17/70/70
f 17/70/70 1/71/71 13/66/66 29/69/69
s 10
f 37/73/73 25/74/74 26/76/76
f 26/76/76 30/75/75 41/72/72
f 41/72/72 37/73/73 26/76/76
s 11
f 24/83/83 38/84/84 42/77/77
f 23/82/82 42/77/77 43/78/78
f 43/78/78 8/80/80 7/81/81
f 43/78/78 44/79/79 8/80/80
f 7/81/81 23/82/82 43/78/78
f 23/82/82 24/83/83 42/77/77
s 12
f 44/85/85 39/86/86 9/87/87 8/88/88
s 13
f 40/89/89 36/90/90 15/91/91 14/92/92
s 14
f 43/98/98 49/97/97 48/96/96
f 44/99/99 48/96/96 47/95/95
f 47/95/95 40/101/101 39/100/100
f 46/94/94 36/102/102 40/101/101
f 45/93/93 33/103/103 36/102/102
f 45/93/93 50/104/104 33/103/103
f 46/94/94 45/93/93 36/102/102
f 47/95/95 46/94/94 40/101/101
f 39/100/100 44/99/99 47/95/95
f 44/99/99 43/98/98 48/96/96
s 15
usemtl Red
f 50/105/105 45/106/106 51/107/107 52/108/108
s 16
usemtl Default
f 53/109/109 54/110/110 42/111/111
f 56/120/120 53/109/109 38/112/112
f 38/112/112 37/113/113 56/120/120
f 37/113/113 41/114/114 56/120/120
f 41/114/114 35/115/115 55/119/119
f 35/115/115 51/118/118 55/119/119
f 34/116/116 52/117/117 51/118/118
f 35/115/115 34/116/116 51/118/118
f 41/114/114 55/119/119 56/120/120
f 53/109/109 42/111/111 38/112/112
s 17
f 34/124/124 33/123/123 50/122/122 52/121/121
s 18
f 43/128/128 42/127/127 54/126/126 49/125/125
s 19
usemtl Red
f 48/129/129 49/130/130 54/131/131 53/132/132
s 20
f 47/133/133 48/134/134 53/135/135 56/136/136
s 21
f 46/137/137 47/138/138 56/139/139 55/140/140
s 22
f 45/141/141 46/142/142 55/143/143 51/144/144
s 23
usemtl Default
f 58/146/146 57/145/145 12/152/152
f 12/152/152 11/151/151 58/146/146
f 11/151/151 27/150/150 58/146/146
f 27/150/150 28/149/149 59/147/147
f 28/149/149 60/148/148 59/147/147
f 27/150/150 59/147/147 58/146/146
s 24
f 62/160/160 60/159/159 28/158/158
f 61/153/153 62/160/160 29/157/157
f 13/156/156 12/155/155 61/153/153
f 61/153/153 29/157/157 13/156/156
f 12/155/155 57/154/154 61/153/153
f 62/160/160 28/158/158 29/157/157
s 25
f 58/161/161 59/162/162 63/163/163 64/164/164
s 26
f 57/170/170 58/169/169 64/168/168
f 57/170/170 64/168/168 66/167/167
f 66/167/167 65/166/166 57/170/170
f 65/166/166 61/165/165 57/170/170
s 27
usemtl Orange
f 65/171/171 66/172/172 67/173/173 68/174/174
s 28
usemtl Default
f 62/175/175 61/176/176 65/177/177 68/178/178
s 29
usemtl Orange
f 66/179/179 64/180/180 63/181/181 67/182/182
s 30
usemtl Default
f 63/186/186 59/187/187 60/188/188
f 62/183/183 68/184/184 60/188/188
f 68/184/184 67/185/185 60/188/188
f 67/185/185 63/186/186 60/188/188
s 31
f 70/190/190 69/189/189 3/196/196
f 3/196/196 2/195/195 70/190/190
f 2/195/195 18/194/194 70/190/190
f 18/194/194 19/193/193 71/191/191
f 19/193/193 72/192/192 71/191/191
f 18/194/194 71/191/191 70/190/190
s 32
f 74/204/204 72/203/203 19/202/202
f 74/204/204 19/202/202 20/201/201
f 20/201/201 4/200/200 74/204/204
f 4/200/200 3/199/199 73/197/197
f 3/199/199 69/198/198 73/197/197
f 4/200/200 73/197/197 74/204/204
s 33
f 70/205/205 71/206/206 75/207/207 76/208/208
s 34
f 77/209/209 73/214/214 69/213/213
f 69/213/213 70/212/212 76/211/211
f 76/211/211 78/210/210 69/213/213
f 78/210/210 77/209/209 69/213/213
s 35
f 74/215/215 73/216/216 77/217/217 79/218/218
s 36
usemtl Orange
f 77/219/219 78/220/220 80/221/221 79/222/222
s 37
f 78/223/223 76/224/224 75/225/225 80/226/226
s 38
usemtl Default
f 72/230/230 74/231/231 79/232/232
f 80/227/227 72/230/230 79/232/232
f 80/227/227 75/228/228 72/230/230
f 75/228/228 71/229/229 72/230/230
