mtllib Dooroutline.mtl
o object1
g object1
v -3.60596477 -0.00000000 -1.00282106
v -3.60596477 -0.00000000 1.00282106
v 3.60596477 0.00000000 1.00282106
v 3.60596477 0.00000000 -1.00282106
v 4.88766137 1.28169661 1.00282106
v 4.88766137 1.28169661 -1.00282106
v 4.88766137 12.16742110 1.00282106
v 4.88766137 12.16742110 -1.00282106
v 4.88766137 6.72455885 -1.00282106
v 3.60596477 13.44911770 1.00282106
v 3.60596477 13.44911770 -1.00282106
v -3.60596477 13.44911770 1.00282106
v -3.60596477 13.44911770 -1.00282106
v -4.88766137 12.16742110 1.00282106
v -4.88766137 12.16742110 -1.00282106
v -4.88766137 1.28169661 1.00282106
v -4.88766137 1.28169661 -1.00282106
v -4.88766137 6.72455885 -1.00282106
v -4.40766137 11.96859859 1.48282106
v -4.40766137 1.48051912 1.48282106
v -4.40766137 6.72455885 1.48282106
v 3.72393247 6.72455885 1.48282106
v 3.72393247 1.76372890 1.48282106
v 3.12393247 1.16372890 1.48282106
v -3.12393247 1.16372890 1.48282106
v -3.72393247 1.76372890 1.48282106
v -3.72393247 6.72455885 1.48282106
v -3.40714226 0.48000000 1.48282106
v 3.40714226 0.48000000 1.48282106
v 4.40766137 1.48051912 1.48282106
v 4.40766137 6.72455885 1.48282106
v -3.72393247 11.68538880 1.48282106
v -3.12393247 12.28538880 1.48282106
v 3.12393247 12.28538880 1.48282106
v 3.72393247 11.68538880 1.48282106
v 4.40766137 11.96859859 1.48282106
v 3.40714226 12.96911770 1.48282106
v -3.40714226 12.96911770 1.48282106
v -3.12393247 1.16372890 -1.00282106
v -3.72393247 1.76372890 -1.00282106
v 3.12393247 1.16372890 -1.00282106
v 3.72393247 1.76372890 -1.00282106
v 3.72393247 11.68538880 -1.00282106
v 3.72393247 6.72455885 -1.00282106
v 3.12393247 12.28538880 -1.00282106
v -3.12393247 12.28538880 -1.00282106
v -3.72393247 11.68538880 -1.00282106
v -3.72393247 6.72455885 -1.00282106
vt 0.00000000 0.00000000
vt 1.00000000 0.00000000
vt 1.00000000 1.00000000
vt 0.00000000 1.00000000
vt 0.00000000 0.00000000
vt 1.00000000 0.00000000
vt 1.00000000 1.00000000
vt 0.00000000 1.00000000
vt 0.00000000 0.00000000
vt 1.00000000 0.00000000
vt 1.00000000 1.00000000
vt 0.00000000 1.00000000
vt 0.00000000 0.50000000
vt 0.00000000 0.00000000
vt 1.00000000 0.00000000
vt 1.00000000 1.00000000
vt 0.00000000 1.00000000
vt 0.00000000 0.00000000
vt 1.00000000 0.00000000
vt 1.00000000 1.00000000
vt 0.00000000 1.00000000
vt 0.00000000 0.00000000
vt 1.00000000 0.00000000
vt 1.00000000 1.00000000
vt 0.00000000 1.00000000
vt 0.00000000 0.00000000
vt 1.00000000 0.00000000
vt 1.00000000 1.00000000
vt 0.00000000 1.00000000
vt 0.00000000 0.50000000
vt 0.01826452 1.00000000
vt 0.00000000 0.00000000
vt 1.00000000 0.00000000
vt 0.98173548 1.00000000
vt 0.50000000 1.00000000
vt 0.50000000 0.07756141
vt 0.10278780 0.07756141
vt 0.05474597 0.14562472
vt 0.05474597 0.85437528
vt 0.10278780 0.92243859
vt 0.50000000 0.92243859
vt 0.50000000 1.00000000
vt 0.08011127 1.00000000
vt 0.00000000 0.88650227
vt 0.00000000 0.11349773
vt 0.08011127 0.00000000
vt 0.50000000 0.00000000
vt 0.89721220 0.92243859
vt 0.94525403 0.85437528
vt 0.94525403 0.14562472
vt 0.89721220 0.07756141
vt 0.91988873 0.00000000
vt 1.00000000 0.11349773
vt 1.00000000 0.88650227
vt 0.91988873 1.00000000
vt 1.00000000 1.00000000
vt 0.00000000 1.00000000
vt 0.00000000 0.00000000
vt 1.00000000 0.00000000
vt 1.00000000 1.00000000
vt 0.00000000 1.00000000
vt 0.00000000 0.00000000
vt 1.00000000 0.00000000
vt 1.00000000 1.00000000
vt 0.00000000 1.00000000
vt 0.00000000 0.00000000
vt 1.00000000 0.00000000
vt 1.00000000 1.00000000
vt 0.00000000 1.00000000
vt 0.00000000 0.00000000
vt 1.00000000 0.00000000
vt 0.00000000 0.50000000
vt 1.00000000 0.50000000
vt 1.00000000 1.00000000
vt 0.00000000 1.00000000
vt 0.00000000 0.00000000
vt 1.00000000 0.00000000
vt 1.00000000 1.00000000
vt 0.00000000 1.00000000
vt 0.00000000 0.00000000
vt 1.00000000 0.00000000
vt 1.00000000 1.00000000
vt 0.00000000 1.00000000
vt 0.00000000 0.00000000
vt 1.00000000 0.00000000
vt 1.00000000 1.00000000
vt 0.00000000 1.00000000
vt 0.00000000 0.00000000
vt 1.00000000 0.00000000
vt 0.00000000 0.50000000
vt 1.00000000 0.50000000
vt 0.10968957 1.00000000
vt 0.00000000 0.00000000
vt 1.00000000 0.00000000
vt 0.89031043 1.00000000
vt 0.10968957 1.00000000
vt 0.00000000 0.00000000
vt 1.00000000 0.00000000
vt 0.89031043 1.00000000
vt 0.02756856 1.00000000
vt 0.00000000 0.00000000
vt 1.00000000 0.00000000
vt 0.97243144 1.00000000
vt 0.10968957 1.00000000
vt 0.00000000 0.00000000
vt 1.00000000 0.00000000
vt 0.89031043 1.00000000
vt 0.01826452 1.00000000
vt 0.00000000 0.00000000
vt 1.00000000 0.00000000
vt 0.98173548 1.00000000
vt 0.50000000 1.00000000
vt 0.10968957 1.00000000
vt 0.00000000 0.00000000
vt 1.00000000 0.00000000
vt 0.89031043 1.00000000
vt 0.50000000 0.11904762
vt 0.13114086 0.11904762
vt 0.08652827 0.18042667
vt 0.08652827 0.81957333
vt 0.13114086 0.88095238
vt 0.50000000 0.88095238
vt 0.50000000 1.00000000
vt 0.09529968 1.00000000
vt 0.00000000 0.86888447
vt 0.00000000 0.13111553
vt 0.09529968 0.00000000
vt 0.50000000 0.00000000
vt 0.86885914 0.88095238
vt 0.91347173 0.81957333
vt 0.91347173 0.18042667
vt 0.86885914 0.11904762
vt 0.90470032 0.00000000
vt 1.00000000 0.13111553
vt 1.00000000 0.86888447
vt 0.90470032 1.00000000
vt 0.00000000 0.00000000
vt 1.00000000 0.00000000
vt 1.00000000 1.00000000
vt 0.00000000 1.00000000
vt 0.02756856 1.00000000
vt 0.00000000 0.00000000
vt 1.00000000 0.00000000
vt 0.97243144 1.00000000
vn 0.00000000 -1.00000000 0.00000000
vn 0.00000000 -1.00000000 0.00000000
vn 0.00000000 -1.00000000 0.00000000
vn 0.00000000 -1.00000000 0.00000000
vn 0.70710678 -0.70710678 0.00000000
vn 0.70710678 -0.70710678 0.00000000
vn 0.70710678 -0.70710678 0.00000000
vn 0.70710678 -0.70710678 0.00000000
vn 1.00000000 -0.00000000 0.00000000
vn 1.00000000 -0.00000000 0.00000000
vn 1.00000000 -0.00000000 0.00000000
vn 1.00000000 -0.00000000 0.00000000
vn 1.00000000 -0.00000000 0.00000000
vn 0.70710678 0.70710678 -0.00000000
vn 0.70710678 0.70710678 -0.00000000
vn 0.70710678 0.70710678 -0.00000000
vn 0.70710678 0.70710678 -0.00000000
vn -0.00000000 1.00000000 0.00000000
vn 0.00000000 1.00000000 -0.00000000
vn 0.00000000 1.00000000 -0.00000000
vn -0.00000000 1.00000000 -0.00000000
vn -0.70710678 0.70710678 -0.00000000
vn -0.70710678 0.70710678 -0.00000000
vn -0.70710678 0.70710678 0.00000000
vn -0.70710678 0.70710678 0.00000000
vn -1.00000000 -0.00000000 0.00000000
vn -1.00000000 -0.00000000 0.00000000
vn -1.00000000 -0.00000000 0.00000000
vn -1.00000000 -0.00000000 0.00000000
vn -1.00000000 -0.00000000 0.00000000
vn -0.70710678 -0.00000000 0.70710678
vn -0.70710678 -0.00000000 0.70710678
vn -0.70710678 -0.00000000 0.70710678
vn -0.70710678 -0.00000000 0.70710678
vn -0.70710678 -0.00000000 0.70710678
vn 0.00000000 0.00000000 1.00000000
vn 0.00000000 0.00000000 1.00000000
vn 0.00000000 0.00000000 1.00000000
vn 0.00000000 0.00000000 1.00000000
vn 0.00000000 0.00000000 1.00000000
vn 0.00000000 0.00000000 1.00000000
vn 0.00000000 0.00000000 1.00000000
vn 0.00000000 0.00000000 1.00000000
vn 0.00000000 0.00000000 1.00000000
vn 0.00000000 0.00000000 1.00000000
vn 0.00000000 0.00000000 1.00000000
vn 0.00000000 0.00000000 1.00000000
vn 0.00000000 0.00000000 1.00000000
vn 0.00000000 0.00000000 1.00000000
vn 0.00000000 0.00000000 1.00000000
vn 0.00000000 0.00000000 1.00000000
vn 0.00000000 0.00000000 1.00000000
vn 0.00000000 0.00000000 1.00000000
vn 0.00000000 0.00000000 1.00000000
vn 0.00000000 0.00000000 1.00000000
vn 0.70710678 0.70710678 -0.00000000
vn 0.70710678 0.70710678 -0.00000000
vn 0.70710678 0.70710678 -0.00000000
vn 0.70710678 0.70710678 -0.00000000
vn -0.00000000 1.00000000 -0.00000000
vn -0.00000000 1.00000000 -0.00000000
vn -0.00000000 1.00000000 -0.00000000
vn -0.00000000 1.00000000 -0.00000000
vn -0.70710678 0.70710678 -0.00000000
vn -0.70710678 0.70710678 -0.00000000
vn -0.70710678 0.70710678 -0.00000000
vn -0.70710678 0.70710678 -0.00000000
vn -1.00000000 0.00000000 -0.00000000
vn -1.00000000 0.00000000 -0.00000000
vn -1.00000000 0.00000000 -0.00000000
vn -1.00000000 0.00000000 -0.00000000
vn -1.00000000 0.00000000 -0.00000000
vn -1.00000000 0.00000000 -0.00000000
vn -0.70710678 -0.70710678 0.00000000
vn -0.70710678 -0.70710678 0.00000000
vn -0.70710678 -0.70710678 0.00000000
vn -0.70710678 -0.70710678 0.00000000
vn -0.00000000 -1.00000000 0.00000000
vn -0.00000000 -1.00000000 0.00000000
vn -0.00000000 -1.00000000 0.00000000
vn -0.00000000 -1.00000000 0.00000000
vn 0.70710678 -0.70710678 -0.00000000
vn 0.70710678 -0.70710678 -0.00000000
vn 0.70710678 -0.70710678 -0.00000000
vn 0.70710678 -0.70710678 -0.00000000
vn 1.00000000 -0.00000000 -0.00000000
vn 1.00000000 -0.00000000 -0.00000000
vn 1.00000000 -0.00000000 -0.00000000
vn 1.00000000 -0.00000000 -0.00000000
vn 1.00000000 -0.00000000 -0.00000000
vn 1.00000000 -0.00000000 -0.00000000
vn -0.50000000 -0.50000000 0.70710678
vn -0.50000000 -0.50000000 0.70710678
vn -0.50000000 -0.50000000 0.70710678
vn -0.50000000 -0.50000000 0.70710678
vn -0.50000000 0.50000000 0.70710678
vn -0.50000000 0.50000000 0.70710678
vn -0.50000000 0.50000000 0.70710678
vn -0.50000000 0.50000000 0.70710678
vn -0.00000000 0.70710678 0.70710678
vn -0.00000000 0.70710678 0.70710678
vn -0.00000000 0.70710678 0.70710678
vn -0.00000000 0.70710678 0.70710678
vn 0.50000000 0.50000000 0.70710678
vn 0.50000000 0.50000000 0.70710678
vn 0.50000000 0.50000000 0.70710678
vn 0.50000000 0.50000000 0.70710678
vn 0.70710678 0.00000000 0.70710678
vn 0.70710678 0.00000000 0.70710678
vn 0.70710678 0.00000000 0.70710678
vn 0.70710678 0.00000000 0.70710678
vn 0.70710678 0.00000000 0.70710678
vn 0.50000000 -0.50000000 0.70710678
vn 0.50000000 -0.50000000 0.70710678
vn 0.50000000 -0.50000000 0.70710678
vn 0.50000000 -0.50000000 0.70710678
vn -0.00000000 -0.00000000 -1.00000000
vn -0.00000000 -0.00000000 -1.00000000
vn -0.00000000 -0.00000000 -1.00000000
vn -0.00000000 -0.00000000 -1.00000000
vn -0.00000000 -0.00000000 -1.00000000
vn -0.00000000 -0.00000000 -1.00000000
vn -0.00000000 -0.00000000 -1.00000000
vn -0.00000000 -0.00000000 -1.00000000
vn -0.00000000 -0.00000000 -1.00000000
vn -0.00000000 -0.00000000 -1.00000000
vn -0.00000000 -0.00000000 -1.00000000
vn -0.00000000 -0.00000000 -1.00000000
vn -0.00000000 -0.00000000 -1.00000000
vn -0.00000000 -0.00000000 -1.00000000
vn -0.00000000 -0.00000000 -1.00000000
vn -0.00000000 -0.00000000 -1.00000000
vn -0.00000000 -0.00000000 -1.00000000
vn -0.00000000 -0.00000000 -1.00000000
vn -0.00000000 -0.00000000 -1.00000000
vn -0.00000000 -0.00000000 -1.00000000
vn -0.70710678 -0.70710678 0.00000000
vn -0.70710678 -0.70710678 0.00000000
vn -0.70710678 -0.70710678 0.00000000
vn -0.70710678 -0.70710678 0.00000000
vn 0.00000000 -0.70710678 0.70710678
vn 0.00000000 -0.70710678 0.70710678
vn 0.00000000 -0.70710678 0.70710678
vn 0.00000000 -0.70710678 0.70710678
s 1
usemtl Default
f 4/4/4 3/3/3 2/2/2 1/1/1
s 2
f 6/8/8 5/7/7 3/6/6 4/5/5
s 3
f 5/10/10 6/9/9 9/13/13
f 9/13/13 8/12/12 7/11/11
f 7/11/11 5/10/10 9/13/13
s 4
f 11/17/17 10/16/16 7/15/15 8/14/14
s 5
f 13/21/21 12/20/20 10/19/19 11/18/18
s 6
f 15/25/25 14/24/24 12/23/23 13/22/22
s 7
f 14/27/27 15/26/26 18/30/30
f 18/30/30 17/29/29 16/28/28
f 16/28/28 14/27/27 18/30/30
s 8
usemtl Red
f 16/33/33 20/34/34 21/35/35
f 21/35/35 19/31/31 14/32/32
f 14/32/32 16/33/33 21/35/35
s 9
usemtl Default
f 26/40/40 27/41/41 21/42/42
f 19/55/55 21/42/42 32/48/48
f 38/54/54 19/55/55 33/49/49
f 33/49/49 34/50/50 37/53/53
f 34/50/50 36/52/52 37/53/53
f 35/51/51 31/47/47 36/52/52
f 30/46/46 31/47/47 23/37/37
f 29/45/45 30/46/46 24/38/38
f 24/38/38 25/39/39 28/44/44
f 25/39/39 20/43/43 28/44/44
f 24/38/38 28/44/44 29/45/45
f 30/46/46 23/37/37 24/38/38
f 31/47/47 22/36/36 23/37/37
f 35/51/51 22/36/36 31/47/47
f 34/50/50 35/51/51 36/52/52
f 33/49/49 37/53/53 38/54/54
f 19/55/55 32/48/48 33/49/49
f 21/42/42 27/41/41 32/48/48
f 25/39/39 26/40/40 20/43/43
f 26/40/40 21/42/42 20/43/43
s 10
f 25/56/56 39/57/57 40/58/58 26/59/59
s 11
f 24/60/60 41/61/61 39/62/62 25/63/63
s 12
f 23/64/64 42/65/65 41/66/66 24/67/67
s 13
f 42/70/70 23/71/71 22/73/73 44/72/72
f 44/72/72 22/73/73 35/68/68 43/69/69
s 14
f 34/74/74 45/75/75 43/76/76 35/77/77
s 15
f 33/78/78 46/79/79 45/80/80 34/81/81
s 16
f 32/82/82 47/83/83 46/84/84 33/85/85
s 17
f 47/88/88 32/89/89 27/91/91 48/90/90
f 48/90/90 27/91/91 26/86/86 40/87/87
s 18
usemtl Red
f 20/92/92 16/93/93 2/94/94 28/95/95
s 19
f 38/96/96 12/97/97 14/98/98 19/99/99
s 20
f 37/100/100 10/101/101 12/102/102 38/103/103
s 21
f 36/104/104 7/105/105 10/106/106 37/107/107
s 22
f 7/110/110 36/111/111 31/112/112
f 31/112/112 30/108/108 5/109/109
f 5/109/109 7/110/110 31/112/112
s 23
f 29/113/113 3/114/114 5/115/115 30/116/116
s 24
usemtl Default
f 18/123/123 48/122/122 40/121/121
f 17/124/124 40/121/121 39/120/120
f 1/125/125 39/120/120 41/119/119
f 41/119/119 6/127/127 4/126/126
f 42/118/118 9/128/128 6/127/127
f 8/133/133 9/128/128 43/132/132
f 11/134/134 8/133/133 45/131/131
f 13/135/135 11/134/134 46/130/130
f 46/130/130 47/129/129 15/136/136
f 46/130/130 15/136/136 13/135/135
f 11/134/134 45/131/131 46/130/130
f 8/133/133 43/132/132 45/131/131
f 9/128/128 44/117/117 43/132/132
f 42/118/118 44/117/117 9/128/128
f 41/119/119 42/118/118 6/127/127
f 4/126/126 1/125/125 41/119/119
f 1/125/125 17/124/124 39/120/120
f 47/129/129 18/123/123 15/136/136
f 47/129/129 48/122/122 18/123/123
f 17/124/124 18/123/123 40/121/121
s 25
f 1/140/140 2/139/139 16/138/138 17/137/137
s 26
usemtl Red
f 28/141/141 2/142/142 3/143/143 29/144/144
